<?xml version="1.0" encoding="UTF-8" standalone="no"?>
<svg
   width="16"
   height="16"
   fill="currentColor"
   class="bi bi-trash"
   viewBox="0 0 16 16"
   version="1.1"
   id="svg388"
   sodipodi:docname="eliminar.svg"
   inkscape:version="1.1.1 (3bf5ae0d25, 2021-09-20)"
   xmlns:inkscape="http://www.inkscape.org/namespaces/inkscape"
   xmlns:sodipodi="http://sodipodi.sourceforge.net/DTD/sodipodi-0.dtd"
   xmlns="http://www.w3.org/2000/svg"
   xmlns:svg="http://www.w3.org/2000/svg">
  <defs
     id="defs392" />
  <sodipodi:namedview
     id="namedview390"
     pagecolor="#ffffff"
     bordercolor="#666666"
     borderopacity="1.0"
     inkscape:pageshadow="2"
     inkscape:pageopacity="0.0"
     inkscape:pagecheckerboard="0"
     showgrid="false"
     inkscape:zoom="44.9375"
     inkscape:cx="8"
     inkscape:cy="7.8331015"
     inkscape:window-width="2240"
     inkscape:window-height="1276"
     inkscape:window-x="-12"
     inkscape:window-y="-12"
     inkscape:window-maximized="1"
     inkscape:current-layer="svg388" />
  <path
     d="M5.5 5.5A.5.5 0 0 1 6 6v6a.5.5 0 0 1-1 0V6a.5.5 0 0 1 .5-.5zm2.5 0a.5.5 0 0 1 .5.5v6a.5.5 0 0 1-1 0V6a.5.5 0 0 1 .5-.5zm3 .5a.5.5 0 0 0-1 0v6a.5.5 0 0 0 1 0V6z"
     id="path384" />
  <path
     fill-rule="evenodd"
     d="M14.5 3a1 1 0 0 1-1 1H13v9a2 2 0 0 1-2 2H5a2 2 0 0 1-2-2V4h-.5a1 1 0 0 1-1-1V2a1 1 0 0 1 1-1H6a1 1 0 0 1 1-1h2a1 1 0 0 1 1 1h3.5a1 1 0 0 1 1 1v1zM4.118 4 4 4.059V13a1 1 0 0 0 1 1h6a1 1 0 0 0 1-1V4.059L11.882 4H4.118zM2.5 3V2h11v1h-11z"
     id="path386" />
  <path
     style="fill:#ff0000;stroke-width:0.0222531"
     d="M 4.7628644,14.972579 C 4.1035763,14.897443 3.5123885,14.470468 3.2168907,13.856026 3.0071751,13.419954 3.027595,13.960668 3.0207403,8.6620306 L 3.0146875,3.9833102 H 2.6831789 c -0.2628568,0 -0.3595607,-0.00873 -0.4669685,-0.04216 C 1.8434351,3.8251296 1.5842626,3.517021 1.5227819,3.1167913 1.5064861,3.0107078 1.5008322,2.7469372 1.5070412,2.3824381 1.5160374,1.8543098 1.5204106,1.8040811 1.5681899,1.6801113 1.6806097,1.3884229 1.8840606,1.1844309 2.1808067,1.0658652 l 0.1335188,-0.053348 1.8495686,-0.00651 1.8495684,-0.006514 0.011549,-0.12736098 C 6.0424363,0.67996081 6.1485147,0.46823074 6.3065371,0.3102084 6.4714359,0.14530949 6.6591263,0.05265105 6.8885628,0.02287548 7.1032045,-0.00498004 8.8949545,-0.00511848 9.1126565,0.02270369 9.3465967,0.05260105 9.5631203,0.16247092 9.7151755,0.32843803 9.8563623,0.48254242 9.9592045,0.69805679 9.9750749,0.8730787 l 0.011635,0.1283121 1.7493431,4.475e-4 c 0.962139,2.462e-4 1.812492,0.00958 1.889673,0.020739 0.361636,0.052293 0.668986,0.3030431 0.805955,0.6575337 0.04795,0.1241026 0.05227,0.1736329 0.06128,0.7023268 0.0062,0.3644991 5.54e-4,0.6282697 -0.01574,0.7343532 -0.06148,0.4002297 -0.320653,0.7083383 -0.693429,0.824359 -0.107431,0.033436 -0.204117,0.04216 -0.467274,0.04216 h -0.331814 v 4.6044401 c 0,3.9089889 -0.0048,4.6291039 -0.03193,4.7677329 -0.171571,0.877521 -0.869579,1.522323 -1.75301,1.619385 -0.268783,0.02953 -6.1761244,0.02743 -6.4368997,-0.0023 z m 6.3835076,-0.976152 c 0.402171,-0.05813 0.746143,-0.370311 0.835605,-0.758367 0.01476,-0.06402 0.02268,-1.660639 0.02304,-4.6422173 l 5.44e-4,-4.5446302 -0.06565,-0.033951 C 11.881796,3.98721 11.429241,3.9833102 8,3.9833102 c -3.4292408,0 -3.8817961,0.0039 -3.939909,0.033951 l -0.065654,0.033951 5.452e-4,4.5446302 c 3.561e-4,2.9834956 0.00828,4.5781746 0.023056,4.6422826 0.087213,0.378306 0.4341572,0.702012 0.810892,0.75658 0.1916633,0.02776 6.1261108,0.02938 6.3174428,0.0017 z M 13.518776,2.4923505 V 1.9805285 H 8 2.4812239 v 0.511822 0.511822 H 8 13.518776 Z"
     id="path488" />
  <path
     style="fill:#ff0000;stroke-width:0.0222531"
     d="M 5.2907181,12.437174 C 5.1855093,12.385097 5.0934898,12.287083 5.0480882,12.17874 5.023399,12.119823 5.0180807,11.556693 5.0180807,9.0013908 c 0,-3.4028819 -0.00829,-3.1886526 0.1291359,-3.3352122 0.1325647,-0.1413703 0.3711582,-0.1870381 0.5508264,-0.1054303 0.1297534,0.058936 0.2475327,0.2058706 0.2763423,0.344749 0.016193,0.07806 0.021763,1.0746424 0.017675,3.1626529 l -0.00597,3.0486788 -0.048031,0.08901 c -0.1339674,0.24827 -0.4122329,0.34771 -0.6473422,0.231333 z"
     id="path527" />
  <path
     style="fill:#ff0000;stroke-width:0.0222531"
     d="M 7.7778123,12.423792 C 7.6883484,12.376771 7.6378484,12.330669 7.5886607,12.251113 L 7.5215577,12.14258 7.5157665,9.0228072 7.5099753,5.9030341 7.5723644,5.7836077 C 7.6113874,5.7089091 7.6705306,5.6390362 7.7302811,5.597042 7.8168314,5.5362122 7.8421788,5.5299026 8,5.5299026 c 0.1578212,0 0.1831686,0.00631 0.2697189,0.067139 0.059633,0.041912 0.1188845,0.1118496 0.1576888,0.1861294 l 0.062161,0.1189901 V 9.0013908 12.10062 l -0.06218,0.119027 c -0.081569,0.15614 -0.2219872,0.246931 -0.4012953,0.259466 -0.1063377,0.0074 -0.1454679,-0.0013 -0.2482811,-0.05532 z"
     id="path566" />
  <path
     style="fill:#ff0000;stroke-width:0.0222531"
     d="M 10.314325,12.449733 C 10.212369,12.403992 10.121458,12.31614 10.06194,12.205841 l -0.04803,-0.08901 -0.0069,-3.0486788 c -0.0049,-2.1606586 2.6e-4,-3.0818642 0.01764,-3.1626086 0.04743,-0.220377 0.252725,-0.3857881 0.478814,-0.3857881 0.205627,0 0.402374,0.1409801 0.456194,0.3268873 0.01714,0.059226 0.02234,0.9983699 0.01769,3.2008852 l -0.0066,3.117067 -0.06139,0.09276 c -0.0933,0.140974 -0.216552,0.212374 -0.380708,0.220538 -0.08929,0.0044 -0.163422,-0.0053 -0.214374,-0.02815 z"
     id="path605" />
</svg>
