<?xml version="1.0" encoding="UTF-8" standalone="no"?>
<svg
   width="16"
   height="16"
   fill="currentColor"
   class="bi bi-wrench"
   viewBox="0 0 16 16"
   version="1.1"
   id="svg796"
   sodipodi:docname="reparacao.svg"
   inkscape:version="1.1.1 (3bf5ae0d25, 2021-09-20)"
   xmlns:inkscape="http://www.inkscape.org/namespaces/inkscape"
   xmlns:sodipodi="http://sodipodi.sourceforge.net/DTD/sodipodi-0.dtd"
   xmlns="http://www.w3.org/2000/svg"
   xmlns:svg="http://www.w3.org/2000/svg">
  <defs
     id="defs800" />
  <sodipodi:namedview
     id="namedview798"
     pagecolor="#ffffff"
     bordercolor="#666666"
     borderopacity="1.0"
     inkscape:pageshadow="2"
     inkscape:pageopacity="0.0"
     inkscape:pagecheckerboard="0"
     showgrid="false"
     inkscape:zoom="44.9375"
     inkscape:cx="8"
     inkscape:cy="7.8331015"
     inkscape:window-width="2240"
     inkscape:window-height="1276"
     inkscape:window-x="-12"
     inkscape:window-y="-12"
     inkscape:window-maximized="1"
     inkscape:current-layer="svg796" />
  <path
     d="M.102 2.223A3.004 3.004 0 0 0 3.78 5.897l6.341 6.252A3.003 3.003 0 0 0 13 16a3 3 0 1 0-.851-5.878L5.897 3.781A3.004 3.004 0 0 0 2.223.1l2.141 2.142L4 4l-1.757.364L.102 2.223zm13.37 9.019.528.026.287.445.445.287.026.529L15 13l-.242.471-.026.529-.445.287-.287.445-.529.026L13 15l-.471-.242-.529-.026-.287-.445-.445-.287-.026-.529L11 13l.242-.471.026-.529.445-.287.287-.445.529-.026L13 11l.471.242z"
     id="path794" />
  <path
     style="fill:#ff6600;stroke-width:0.0222531"
     d="m 12.770264,15.973899 c -0.97106,-0.06447 -1.889532,-0.651854 -2.374935,-1.518833 -0.364946,-0.651831 -0.4750001,-1.431181 -0.302825,-2.144464 l 0.0414,-0.17152 -0.160138,-0.158174 C 9.8856921,11.893912 8.7020862,10.728262 7.3435327,9.3905749 5.9849791,8.0528879 4.6310952,6.7176857 4.3349016,6.423459 L 3.7963676,5.8885011 3.5782952,5.9316159 C 3.287795,5.9890501 2.7327375,5.9907078 2.4549158,5.9349708 1.5285855,5.7491293 0.73536623,5.1477993 0.33545573,4.3282337 0.02274415,3.6873711 -0.06560582,2.9987271 0.08254351,2.3569093 L 0.10840407,2.2448752 1.1779851,3.3115885 2.2475661,4.3783016 3.1203554,4.1962873 c 0.480034,-0.1001079 0.8773501,-0.1865751 0.8829245,-0.1921496 0.00557,-0.00557 0.09192,-0.4046112 0.1918789,-0.8867489 L 4.3769028,2.2407751 3.3152245,1.178924 C 2.7313015,0.5949059 2.2625961,0.11147984 2.273657,0.10464387 2.3404896,0.06333893 2.7225001,0.01810817 3.0025562,0.01834084 3.4790518,0.0187367 3.8966186,0.11563508 4.3109837,0.32196771 5.1694847,0.74945725 5.7473246,1.5098679 5.9342398,2.4580974 c 0.062576,0.31745 0.06126,0.7879761 -0.00308,1.1009775 L 5.8834236,3.791307 6.437517,4.349061 c 0.4205036,0.4232815 4.191685,4.2506461 5.524811,5.6071199 l 0.172902,0.1759301 0.230021,-0.05012 c 0.622106,-0.1355498 1.315073,-0.05823 1.882263,0.210019 1.399897,0.662073 2.061681,2.208787 1.571925,3.673886 -0.326487,0.976683 -1.192492,1.742957 -2.21165,1.956954 -0.229827,0.04826 -0.568558,0.0689 -0.837525,0.05105 z m 0.976199,-1.215797 0.261066,-0.0089 0.144331,-0.225763 c 0.138996,-0.217417 0.152511,-0.231027 0.365598,-0.368185 l 0.221267,-0.142422 0.01315,-0.258134 0.01315,-0.258134 0.124355,-0.246088 0.124354,-0.246088 -0.123765,-0.254607 c -0.122593,-0.252197 -0.1239,-0.257031 -0.137943,-0.510519 L 14.737847,11.98331 14.523304,11.848081 C 14.319968,11.719915 14.301119,11.701318 14.16242,11.492031 L 14.016078,11.27121 13.906509,11.25647 c -0.06026,-0.0081 -0.17733,-0.01562 -0.260148,-0.01669 -0.136757,-0.0018 -0.173527,-0.01348 -0.400556,-0.127579 l -0.249977,-0.12563 -0.244785,0.125687 c -0.211759,0.108731 -0.261607,0.12568 -0.369475,0.12563 -0.06858,-2.2e-5 -0.186362,0.0064 -0.261736,0.01427 l -0.137045,0.01432 -0.137275,0.215928 c -0.1314,0.206687 -0.146959,0.222225 -0.363601,0.363121 l -0.226326,0.147195 -0.01224,0.265613 -0.01224,0.265613 -0.123736,0.241203 -0.123736,0.241204 0.123096,0.232577 0.123097,0.232578 0.01269,0.268644 0.01269,0.268645 0.221637,0.142097 c 0.211448,0.135565 0.228437,0.152433 0.36961,0.36695 l 0.147974,0.224852 0.268469,0.01266 0.26847,0.01266 0.231277,0.124291 0.231277,0.124291 0.245733,-0.124782 0.245733,-0.124782 z"
     id="path875" />
  <path
     style="fill:#ff6600;stroke-width:0.0222531"
     d="m 12.676165,15.954354 c -0.601843,-0.06009 -1.231286,-0.350657 -1.685921,-0.778278 -0.477794,-0.449405 -0.760006,-0.944166 -0.901929,-1.581221 -0.07483,-0.335894 -0.07428,-0.861646 0.0013,-1.218562 l 0.05342,-0.252359 -0.142428,-0.139241 C 9.5959221,11.589107 5.1510843,7.2106299 4.5269968,6.5928445 L 3.8022549,5.8754214 3.6257451,5.9125363 C 3.3612929,5.9681429 2.6437468,5.9672961 2.403338,5.9110936 1.833438,5.7778635 1.3588533,5.5225742 0.9480205,5.128247 0.52648772,4.7236497 0.25644455,4.2524898 0.10793775,3.6625064 0.03129073,3.3580052 0.01135491,2.8244789 0.06508553,2.5156867 0.0852136,2.4000096 0.10673933,2.3003075 0.11292048,2.2941263 0.11910163,2.2879453 0.59888381,2.7575339 1.1791031,3.3376567 L 2.2340473,4.3924255 2.897274,4.2540689 C 3.2620486,4.177973 3.6603354,4.0934324 3.7823553,4.0662013 l 0.2218545,-0.049512 0.028076,-0.100139 C 4.047727,3.8614743 4.1347253,3.4609179 4.2256149,3.0264256 L 4.3908689,2.2364395 3.343818,1.1837446 C 2.7306766,0.56729843 2.3050161,0.12285605 2.3166727,0.11127801 2.327621,0.10040361 2.401669,0.08167084 2.4812239,0.06964964 c 0.7456848,-0.11267725 1.4344904,0.0184876 2.0529687,0.39093375 0.2127344,0.1281081 0.5435701,0.40217424 0.6903448,0.57188531 0.3455677,0.3995697 0.5952505,0.9114076 0.6986817,1.4322652 0.053181,0.2678095 0.048383,0.8496703 -0.00931,1.1291465 l -0.041345,0.2002782 1.4380473,1.4575799 c 0.7909261,0.801669 2.1421029,2.1735744 3.0026156,3.0486787 0.860513,0.8751044 1.620854,1.64813 1.689648,1.7178348 l 0.12508,0.126736 0.211405,-0.04771 c 0.17675,-0.03989 0.284362,-0.04786 0.656468,-0.04864 0.412869,-8.61e-4 0.462404,0.0035 0.684816,0.05975 1.517414,0.384049 2.477222,1.803847 2.250893,3.329636 -0.159648,1.076256 -0.920894,1.995439 -1.962498,2.369659 -0.350928,0.126078 -0.888368,0.187045 -1.292874,0.146661 z m 0.575574,-1.055884 c 0.212828,-0.106737 0.260751,-0.122392 0.374668,-0.122392 0.07184,0 0.190019,-0.0062 0.262611,-0.0138 l 0.131986,-0.0138 0.130378,-0.198104 c 0.147289,-0.223799 0.208422,-0.283609 0.430599,-0.421283 0.177643,-0.110077 0.181421,-0.11896 0.183874,-0.432299 0.0013,-0.171615 0.006,-0.187175 0.130295,-0.432177 l 0.1289,-0.254151 -0.121745,-0.26528 c -0.125921,-0.274377 -0.127552,-0.282113 -0.159474,-0.756466 -6.23e-4,-0.0093 -0.07373,-0.0629 -0.162468,-0.119198 -0.210918,-0.133823 -0.304847,-0.22632 -0.442062,-0.435325 -0.126458,-0.192618 -0.09859,-0.180485 -0.474407,-0.20652 -0.154433,-0.0107 -0.207403,-0.02707 -0.422809,-0.130707 l -0.246257,-0.118476 -0.244785,0.118984 c -0.238309,0.115837 -0.251791,0.119502 -0.509683,0.138551 -0.182075,0.01345 -0.270332,0.02896 -0.282276,0.04962 -0.0096,0.01653 -0.07561,0.115093 -0.146784,0.219026 -0.113307,0.165458 -0.155709,0.206483 -0.340812,0.329739 -0.207821,0.138383 -0.211654,0.142536 -0.226145,0.244967 -0.0081,0.05731 -0.01562,0.178011 -0.01669,0.268229 -0.0018,0.154505 -0.0093,0.178259 -0.129226,0.408997 l -0.127278,0.244965 0.127335,0.247471 c 0.116392,0.226202 0.127347,0.259901 0.127471,0.392115 6.7e-5,0.07955 0.0066,0.198129 0.01441,0.263498 l 0.01427,0.118852 0.18025,0.116927 c 0.224672,0.145744 0.279729,0.200689 0.428464,0.427594 l 0.118901,0.181391 0.261504,0.0138 0.261505,0.0138 0.233658,0.12142 c 0.128511,0.06678 0.241335,0.121644 0.250718,0.121917 0.0094,2.74e-4 0.12688,-0.05458 0.261104,-0.121896 z"
     id="path951" />
  <path
     style="fill:#ff6600;stroke-width:0.0222531"
     d="m 12.662448,15.953938 c -1.080937,-0.118692 -2.056763,-0.885182 -2.449638,-1.924137 -0.176648,-0.467143 -0.2303134,-1.039587 -0.142829,-1.523542 0.02765,-0.152991 0.05139,-0.303725 0.05274,-0.334966 0.002,-0.04703 -0.2922289,-0.347191 -1.7110361,-1.74532 C 7.4692629,9.4972889 6.046015,8.0933314 5.2489097,7.3060678 L 3.7996275,5.8746797 3.6244313,5.9130116 C 3.3979429,5.9625658 2.6800182,5.9678981 2.4478442,5.9217504 1.6396068,5.7611026 0.87144516,5.2189608 0.45222785,4.5133136 0.3165507,4.2849351 0.1915719,3.9792409 0.11727085,3.6940195 0.02884734,3.3545858 0.00644319,2.8352957 0.06596086,2.5047415 c 0.02106057,-0.116968 0.04483767,-0.2126692 0.052838,-0.2126692 0.008,0 0.48713082,0.4725063 1.06473444,1.0500139 L 2.2337217,4.3920999 2.9527439,4.2416636 C 3.3482063,4.1589238 3.7468707,4.0741877 3.8386648,4.0533614 L 4.0055633,4.0154955 4.0441053,3.8603207 C 4.0653031,3.7749746 4.15182,3.3746871 4.2363647,2.9707928 L 4.3900822,2.2364395 3.3434245,1.1837446 C 2.7305133,0.56729791 2.3050161,0.12285606 2.3166727,0.11127801 2.3755992,0.05274889 2.9742487,0.0109864 3.2881202,0.04350869 4.6029018,0.17974192 5.6391132,1.1262577 5.9212865,2.4487453 5.9767419,2.7086531 5.9729558,3.3097749 5.914074,3.5938804 L 5.8725657,3.7941586 7.3988929,5.340751 c 1.2632556,1.2800281 4.3008511,4.3657925 4.6376891,4.711231 l 0.09137,0.09371 0.189152,-0.04483 c 0.282062,-0.06685 0.855846,-0.08279 1.158496,-0.03218 1.591826,0.266172 2.692914,1.761914 2.460015,3.341736 -0.163916,1.111889 -0.905701,2.01613 -1.966579,2.397275 -0.352259,0.126557 -0.913647,0.189392 -1.306591,0.146245 z m 0.589291,-1.055468 c 0.212828,-0.106737 0.260751,-0.122392 0.374668,-0.122392 0.07184,0 0.190098,-0.0062 0.262788,-0.01381 l 0.132163,-0.01381 0.110322,-0.168895 c 0.15954,-0.244243 0.196212,-0.282317 0.411102,-0.426808 0.219609,-0.147665 0.2214,-0.151299 0.223318,-0.453164 0.0011,-0.175181 0.0052,-0.188699 0.129794,-0.434449 l 0.128645,-0.253643 -0.121413,-0.264727 c -0.126547,-0.275922 -0.124219,-0.264855 -0.159295,-0.757101 -6.23e-4,-0.0087 -0.0803,-0.06668 -0.177056,-0.12875 -0.197357,-0.126599 -0.305835,-0.23581 -0.436149,-0.439095 -0.0489,-0.07628 -0.103922,-0.144817 -0.122281,-0.152316 -0.01836,-0.0075 -0.142803,-0.02269 -0.276542,-0.03377 -0.22925,-0.01898 -0.257261,-0.02692 -0.489569,-0.138683 l -0.246406,-0.118548 -0.244785,0.118984 c -0.237913,0.115645 -0.252161,0.11953 -0.507569,0.138393 -0.144531,0.01067 -0.265857,0.02299 -0.269613,0.02737 -0.0038,0.0044 -0.0646,0.09623 -0.135202,0.204116 -0.133826,0.204488 -0.166353,0.236071 -0.422804,0.410536 -0.145352,0.09888 -0.156778,0.112652 -0.170812,0.20583 -0.0083,0.05492 -0.01578,0.172349 -0.01669,0.260948 -0.0015,0.149641 -0.0106,0.179076 -0.127612,0.414142 l -0.125962,0.253052 0.125962,0.237992 c 0.116727,0.220542 0.125977,0.248916 0.126156,0.386971 1.11e-4,0.08194 0.0065,0.201853 0.01431,0.266478 l 0.01411,0.117499 0.187946,0.122509 c 0.217397,0.141707 0.277486,0.202492 0.430888,0.435881 l 0.111935,0.170301 0.273,0.01575 0.273,0.01575 0.220745,0.119522 c 0.12141,0.06574 0.228423,0.119707 0.237806,0.119933 0.0094,2.27e-4 0.12688,-0.05466 0.261104,-0.12198 z"
     id="path990" />
</svg>
