<?xml version="1.0" encoding="utf-8"?>
<!DOCTYPE svg PUBLIC "-//W3C//DTD SVG 20010904//EN" "http://www.w3.org/TR/2001/REC-SVG-20010904/DTD/svg10.dtd">
<svg xmlns="http://www.w3.org/2000/svg" xml:space="preserve" xmlns:xlink="http://www.w3.org/1999/xlink" width="999" height="999" viewBox="0 0 999 999">
<defs>
<mask id="qrmask"><g fill="#ffffff">
<g transform="translate(270,54) scale(4.5)"><rect width="6" height="6"/></g>
<g transform="translate(297,54) scale(4.5)"><rect width="6" height="6"/></g>
<g transform="translate(324,54) scale(4.5)"><rect width="6" height="6"/></g>
<g transform="translate(378,54) scale(4.5)"><rect width="6" height="6"/></g>
<g transform="translate(432,54) scale(4.5)"><rect width="6" height="6"/></g>
<g transform="translate(486,54) scale(4.5)"><rect width="6" height="6"/></g>
<g transform="translate(513,54) scale(4.5)"><rect width="6" height="6"/></g>
<g transform="translate(540,54) scale(4.5)"><rect width="6" height="6"/></g>
<g transform="translate(567,54) scale(4.5)"><rect width="6" height="6"/></g>
<g transform="translate(594,54) scale(4.5)"><rect width="6" height="6"/></g>
<g transform="translate(675,54) scale(4.5)"><rect width="6" height="6"/></g>
<g transform="translate(702,54) scale(4.5)"><rect width="6" height="6"/></g>
<g transform="translate(270,81) scale(4.5)"><rect width="6" height="6"/></g>
<g transform="translate(324,81) scale(4.5)"><rect width="6" height="6"/></g>
<g transform="translate(405,81) scale(4.5)"><rect width="6" height="6"/></g>
<g transform="translate(459,81) scale(4.5)"><rect width="6" height="6"/></g>
<g transform="translate(486,81) scale(4.5)"><rect width="6" height="6"/></g>
<g transform="translate(594,81) scale(4.5)"><rect width="6" height="6"/></g>
<g transform="translate(648,81) scale(4.5)"><rect width="6" height="6"/></g>
<g transform="translate(270,108) scale(4.5)"><rect width="6" height="6"/></g>
<g transform="translate(324,108) scale(4.5)"><rect width="6" height="6"/></g>
<g transform="translate(351,108) scale(4.5)"><rect width="6" height="6"/></g>
<g transform="translate(540,108) scale(4.5)"><rect width="6" height="6"/></g>
<g transform="translate(567,108) scale(4.5)"><rect width="6" height="6"/></g>
<g transform="translate(621,108) scale(4.5)"><rect width="6" height="6"/></g>
<g transform="translate(675,108) scale(4.5)"><rect width="6" height="6"/></g>
<g transform="translate(297,135) scale(4.5)"><rect width="6" height="6"/></g>
<g transform="translate(324,135) scale(4.5)"><rect width="6" height="6"/></g>
<g transform="translate(378,135) scale(4.5)"><rect width="6" height="6"/></g>
<g transform="translate(486,135) scale(4.5)"><rect width="6" height="6"/></g>
<g transform="translate(513,135) scale(4.5)"><rect width="6" height="6"/></g>
<g transform="translate(540,135) scale(4.5)"><rect width="6" height="6"/></g>
<g transform="translate(594,135) scale(4.5)"><rect width="6" height="6"/></g>
<g transform="translate(648,135) scale(4.5)"><rect width="6" height="6"/></g>
<g transform="translate(675,135) scale(4.5)"><rect width="6" height="6"/></g>
<g transform="translate(351,162) scale(4.5)"><rect width="6" height="6"/></g>
<g transform="translate(540,162) scale(4.5)"><rect width="6" height="6"/></g>
<g transform="translate(567,162) scale(4.5)"><rect width="6" height="6"/></g>
<g transform="translate(594,162) scale(4.5)"><rect width="6" height="6"/></g>
<g transform="translate(621,162) scale(4.5)"><rect width="6" height="6"/></g>
<g transform="translate(675,162) scale(4.5)"><rect width="6" height="6"/></g>
<g transform="translate(270,189) scale(4.5)"><rect width="6" height="6"/></g>
<g transform="translate(297,189) scale(4.5)"><rect width="6" height="6"/></g>
<g transform="translate(324,189) scale(4.5)"><rect width="6" height="6"/></g>
<g transform="translate(378,189) scale(4.5)"><rect width="6" height="6"/></g>
<g transform="translate(405,189) scale(4.5)"><rect width="6" height="6"/></g>
<g transform="translate(459,189) scale(4.5)"><rect width="6" height="6"/></g>
<g transform="translate(513,189) scale(4.5)"><rect width="6" height="6"/></g>
<g transform="translate(621,189) scale(4.5)"><rect width="6" height="6"/></g>
<g transform="translate(702,189) scale(4.5)"><rect width="6" height="6"/></g>
<g transform="translate(270,216) scale(4.5)"><rect width="6" height="6"/></g>
<g transform="translate(324,216) scale(4.5)"><rect width="6" height="6"/></g>
<g transform="translate(378,216) scale(4.5)"><rect width="6" height="6"/></g>
<g transform="translate(432,216) scale(4.5)"><rect width="6" height="6"/></g>
<g transform="translate(486,216) scale(4.5)"><rect width="6" height="6"/></g>
<g transform="translate(540,216) scale(4.5)"><rect width="6" height="6"/></g>
<g transform="translate(594,216) scale(4.5)"><rect width="6" height="6"/></g>
<g transform="translate(648,216) scale(4.5)"><rect width="6" height="6"/></g>
<g transform="translate(702,216) scale(4.5)"><rect width="6" height="6"/></g>
<g transform="translate(270,243) scale(4.5)"><rect width="6" height="6"/></g>
<g transform="translate(297,243) scale(4.5)"><rect width="6" height="6"/></g>
<g transform="translate(324,243) scale(4.5)"><rect width="6" height="6"/></g>
<g transform="translate(405,243) scale(4.5)"><rect width="6" height="6"/></g>
<g transform="translate(459,243) scale(4.5)"><rect width="6" height="6"/></g>
<g transform="translate(486,243) scale(4.5)"><rect width="6" height="6"/></g>
<g transform="translate(513,243) scale(4.5)"><rect width="6" height="6"/></g>
<g transform="translate(621,243) scale(4.5)"><rect width="6" height="6"/></g>
<g transform="translate(702,243) scale(4.5)"><rect width="6" height="6"/></g>
<g transform="translate(108,270) scale(4.5)"><rect width="6" height="6"/></g>
<g transform="translate(135,270) scale(4.5)"><rect width="6" height="6"/></g>
<g transform="translate(162,270) scale(4.5)"><rect width="6" height="6"/></g>
<g transform="translate(216,270) scale(4.5)"><rect width="6" height="6"/></g>
<g transform="translate(270,270) scale(4.5)"><rect width="6" height="6"/></g>
<g transform="translate(297,270) scale(4.5)"><rect width="6" height="6"/></g>
<g transform="translate(378,270) scale(4.5)"><rect width="6" height="6"/></g>
<g transform="translate(405,270) scale(4.5)"><rect width="6" height="6"/></g>
<g transform="translate(432,270) scale(4.5)"><rect width="6" height="6"/></g>
<g transform="translate(459,270) scale(4.5)"><rect width="6" height="6"/></g>
<g transform="translate(513,270) scale(4.5)"><rect width="6" height="6"/></g>
<g transform="translate(594,270) scale(4.5)"><rect width="6" height="6"/></g>
<g transform="translate(648,270) scale(4.5)"><rect width="6" height="6"/></g>
<g transform="translate(729,270) scale(4.5)"><rect width="6" height="6"/></g>
<g transform="translate(756,270) scale(4.5)"><rect width="6" height="6"/></g>
<g transform="translate(783,270) scale(4.5)"><rect width="6" height="6"/></g>
<g transform="translate(864,270) scale(4.5)"><rect width="6" height="6"/></g>
<g transform="translate(891,270) scale(4.5)"><rect width="6" height="6"/></g>
<g transform="translate(918,270) scale(4.5)"><rect width="6" height="6"/></g>
<g transform="translate(81,297) scale(4.5)"><rect width="6" height="6"/></g>
<g transform="translate(108,297) scale(4.5)"><rect width="6" height="6"/></g>
<g transform="translate(162,297) scale(4.5)"><rect width="6" height="6"/></g>
<g transform="translate(189,297) scale(4.5)"><rect width="6" height="6"/></g>
<g transform="translate(243,297) scale(4.5)"><rect width="6" height="6"/></g>
<g transform="translate(297,297) scale(4.5)"><rect width="6" height="6"/></g>
<g transform="translate(324,297) scale(4.5)"><rect width="6" height="6"/></g>
<g transform="translate(351,297) scale(4.5)"><rect width="6" height="6"/></g>
<g transform="translate(378,297) scale(4.5)"><rect width="6" height="6"/></g>
<g transform="translate(459,297) scale(4.5)"><rect width="6" height="6"/></g>
<g transform="translate(540,297) scale(4.5)"><rect width="6" height="6"/></g>
<g transform="translate(567,297) scale(4.5)"><rect width="6" height="6"/></g>
<g transform="translate(594,297) scale(4.5)"><rect width="6" height="6"/></g>
<g transform="translate(621,297) scale(4.5)"><rect width="6" height="6"/></g>
<g transform="translate(675,297) scale(4.5)"><rect width="6" height="6"/></g>
<g transform="translate(729,297) scale(4.5)"><rect width="6" height="6"/></g>
<g transform="translate(756,297) scale(4.5)"><rect width="6" height="6"/></g>
<g transform="translate(837,297) scale(4.5)"><rect width="6" height="6"/></g>
<g transform="translate(864,297) scale(4.5)"><rect width="6" height="6"/></g>
<g transform="translate(891,297) scale(4.5)"><rect width="6" height="6"/></g>
<g transform="translate(918,297) scale(4.5)"><rect width="6" height="6"/></g>
<g transform="translate(54,324) scale(4.5)"><rect width="6" height="6"/></g>
<g transform="translate(216,324) scale(4.5)"><rect width="6" height="6"/></g>
<g transform="translate(243,324) scale(4.5)"><rect width="6" height="6"/></g>
<g transform="translate(270,324) scale(4.5)"><rect width="6" height="6"/></g>
<g transform="translate(324,324) scale(4.5)"><rect width="6" height="6"/></g>
<g transform="translate(378,324) scale(4.5)"><rect width="6" height="6"/></g>
<g transform="translate(405,324) scale(4.5)"><rect width="6" height="6"/></g>
<g transform="translate(432,324) scale(4.5)"><rect width="6" height="6"/></g>
<g transform="translate(486,324) scale(4.5)"><rect width="6" height="6"/></g>
<g transform="translate(540,324) scale(4.5)"><rect width="6" height="6"/></g>
<g transform="translate(567,324) scale(4.5)"><rect width="6" height="6"/></g>
<g transform="translate(594,324) scale(4.5)"><rect width="6" height="6"/></g>
<g transform="translate(621,324) scale(4.5)"><rect width="6" height="6"/></g>
<g transform="translate(648,324) scale(4.5)"><rect width="6" height="6"/></g>
<g transform="translate(702,324) scale(4.5)"><rect width="6" height="6"/></g>
<g transform="translate(729,324) scale(4.5)"><rect width="6" height="6"/></g>
<g transform="translate(783,324) scale(4.5)"><rect width="6" height="6"/></g>
<g transform="translate(837,324) scale(4.5)"><rect width="6" height="6"/></g>
<g transform="translate(891,324) scale(4.5)"><rect width="6" height="6"/></g>
<g transform="translate(135,351) scale(4.5)"><rect width="6" height="6"/></g>
<g transform="translate(162,351) scale(4.5)"><rect width="6" height="6"/></g>
<g transform="translate(189,351) scale(4.5)"><rect width="6" height="6"/></g>
<g transform="translate(270,351) scale(4.5)"><rect width="6" height="6"/></g>
<g transform="translate(351,351) scale(4.5)"><rect width="6" height="6"/></g>
<g transform="translate(405,351) scale(4.5)"><rect width="6" height="6"/></g>
<g transform="translate(459,351) scale(4.5)"><rect width="6" height="6"/></g>
<g transform="translate(486,351) scale(4.5)"><rect width="6" height="6"/></g>
<g transform="translate(567,351) scale(4.5)"><rect width="6" height="6"/></g>
<g transform="translate(621,351) scale(4.5)"><rect width="6" height="6"/></g>
<g transform="translate(675,351) scale(4.5)"><rect width="6" height="6"/></g>
<g transform="translate(702,351) scale(4.5)"><rect width="6" height="6"/></g>
<g transform="translate(729,351) scale(4.5)"><rect width="6" height="6"/></g>
<g transform="translate(756,351) scale(4.5)"><rect width="6" height="6"/></g>
<g transform="translate(837,351) scale(4.5)"><rect width="6" height="6"/></g>
<g transform="translate(864,351) scale(4.5)"><rect width="6" height="6"/></g>
<g transform="translate(891,351) scale(4.5)"><rect width="6" height="6"/></g>
<g transform="translate(918,351) scale(4.5)"><rect width="6" height="6"/></g>
<g transform="translate(189,378) scale(4.5)"><rect width="6" height="6"/></g>
<g transform="translate(216,378) scale(4.5)"><rect width="6" height="6"/></g>
<g transform="translate(243,378) scale(4.5)"><rect width="6" height="6"/></g>
<g transform="translate(270,378) scale(4.5)"><rect width="6" height="6"/></g>
<g transform="translate(324,378) scale(4.5)"><rect width="6" height="6"/></g>
<g transform="translate(432,378) scale(4.5)"><rect width="6" height="6"/></g>
<g transform="translate(540,378) scale(4.5)"><rect width="6" height="6"/></g>
<g transform="translate(702,378) scale(4.5)"><rect width="6" height="6"/></g>
<g transform="translate(729,378) scale(4.5)"><rect width="6" height="6"/></g>
<g transform="translate(783,378) scale(4.5)"><rect width="6" height="6"/></g>
<g transform="translate(810,378) scale(4.5)"><rect width="6" height="6"/></g>
<g transform="translate(837,378) scale(4.5)"><rect width="6" height="6"/></g>
<g transform="translate(891,378) scale(4.5)"><rect width="6" height="6"/></g>
<g transform="translate(54,405) scale(4.5)"><rect width="6" height="6"/></g>
<g transform="translate(81,405) scale(4.5)"><rect width="6" height="6"/></g>
<g transform="translate(135,405) scale(4.5)"><rect width="6" height="6"/></g>
<g transform="translate(162,405) scale(4.5)"><rect width="6" height="6"/></g>
<g transform="translate(189,405) scale(4.5)"><rect width="6" height="6"/></g>
<g transform="translate(270,405) scale(4.5)"><rect width="6" height="6"/></g>
<g transform="translate(324,405) scale(4.5)"><rect width="6" height="6"/></g>
<g transform="translate(378,405) scale(4.5)"><rect width="6" height="6"/></g>
<g transform="translate(432,405) scale(4.5)"><rect width="6" height="6"/></g>
<g transform="translate(540,405) scale(4.5)"><rect width="6" height="6"/></g>
<g transform="translate(675,405) scale(4.5)"><rect width="6" height="6"/></g>
<g transform="translate(702,405) scale(4.5)"><rect width="6" height="6"/></g>
<g transform="translate(756,405) scale(4.5)"><rect width="6" height="6"/></g>
<g transform="translate(837,405) scale(4.5)"><rect width="6" height="6"/></g>
<g transform="translate(864,405) scale(4.5)"><rect width="6" height="6"/></g>
<g transform="translate(918,405) scale(4.5)"><rect width="6" height="6"/></g>
<g transform="translate(81,432) scale(4.5)"><rect width="6" height="6"/></g>
<g transform="translate(162,432) scale(4.5)"><rect width="6" height="6"/></g>
<g transform="translate(216,432) scale(4.5)"><rect width="6" height="6"/></g>
<g transform="translate(243,432) scale(4.5)"><rect width="6" height="6"/></g>
<g transform="translate(324,432) scale(4.5)"><rect width="6" height="6"/></g>
<g transform="translate(405,432) scale(4.5)"><rect width="6" height="6"/></g>
<g transform="translate(513,432) scale(4.5)"><rect width="6" height="6"/></g>
<g transform="translate(540,432) scale(4.5)"><rect width="6" height="6"/></g>
<g transform="translate(567,432) scale(4.5)"><rect width="6" height="6"/></g>
<g transform="translate(648,432) scale(4.5)"><rect width="6" height="6"/></g>
<g transform="translate(729,432) scale(4.5)"><rect width="6" height="6"/></g>
<g transform="translate(756,432) scale(4.5)"><rect width="6" height="6"/></g>
<g transform="translate(783,432) scale(4.5)"><rect width="6" height="6"/></g>
<g transform="translate(810,432) scale(4.5)"><rect width="6" height="6"/></g>
<g transform="translate(837,432) scale(4.5)"><rect width="6" height="6"/></g>
<g transform="translate(864,432) scale(4.5)"><rect width="6" height="6"/></g>
<g transform="translate(891,432) scale(4.5)"><rect width="6" height="6"/></g>
<g transform="translate(81,459) scale(4.5)"><rect width="6" height="6"/></g>
<g transform="translate(108,459) scale(4.5)"><rect width="6" height="6"/></g>
<g transform="translate(189,459) scale(4.5)"><rect width="6" height="6"/></g>
<g transform="translate(297,459) scale(4.5)"><rect width="6" height="6"/></g>
<g transform="translate(324,459) scale(4.5)"><rect width="6" height="6"/></g>
<g transform="translate(351,459) scale(4.5)"><rect width="6" height="6"/></g>
<g transform="translate(378,459) scale(4.5)"><rect width="6" height="6"/></g>
<g transform="translate(432,459) scale(4.5)"><rect width="6" height="6"/></g>
<g transform="translate(459,459) scale(4.5)"><rect width="6" height="6"/></g>
<g transform="translate(540,459) scale(4.5)"><rect width="6" height="6"/></g>
<g transform="translate(567,459) scale(4.5)"><rect width="6" height="6"/></g>
<g transform="translate(621,459) scale(4.5)"><rect width="6" height="6"/></g>
<g transform="translate(648,459) scale(4.5)"><rect width="6" height="6"/></g>
<g transform="translate(702,459) scale(4.5)"><rect width="6" height="6"/></g>
<g transform="translate(783,459) scale(4.5)"><rect width="6" height="6"/></g>
<g transform="translate(837,459) scale(4.5)"><rect width="6" height="6"/></g>
<g transform="translate(864,459) scale(4.5)"><rect width="6" height="6"/></g>
<g transform="translate(918,459) scale(4.5)"><rect width="6" height="6"/></g>
<g transform="translate(162,486) scale(4.5)"><rect width="6" height="6"/></g>
<g transform="translate(189,486) scale(4.5)"><rect width="6" height="6"/></g>
<g transform="translate(216,486) scale(4.5)"><rect width="6" height="6"/></g>
<g transform="translate(243,486) scale(4.5)"><rect width="6" height="6"/></g>
<g transform="translate(270,486) scale(4.5)"><rect width="6" height="6"/></g>
<g transform="translate(297,486) scale(4.5)"><rect width="6" height="6"/></g>
<g transform="translate(432,486) scale(4.5)"><rect width="6" height="6"/></g>
<g transform="translate(486,486) scale(4.5)"><rect width="6" height="6"/></g>
<g transform="translate(594,486) scale(4.5)"><rect width="6" height="6"/></g>
<g transform="translate(648,486) scale(4.5)"><rect width="6" height="6"/></g>
<g transform="translate(675,486) scale(4.5)"><rect width="6" height="6"/></g>
<g transform="translate(702,486) scale(4.5)"><rect width="6" height="6"/></g>
<g transform="translate(729,486) scale(4.5)"><rect width="6" height="6"/></g>
<g transform="translate(783,486) scale(4.5)"><rect width="6" height="6"/></g>
<g transform="translate(810,486) scale(4.5)"><rect width="6" height="6"/></g>
<g transform="translate(81,513) scale(4.5)"><rect width="6" height="6"/></g>
<g transform="translate(108,513) scale(4.5)"><rect width="6" height="6"/></g>
<g transform="translate(162,513) scale(4.5)"><rect width="6" height="6"/></g>
<g transform="translate(270,513) scale(4.5)"><rect width="6" height="6"/></g>
<g transform="translate(297,513) scale(4.5)"><rect width="6" height="6"/></g>
<g transform="translate(324,513) scale(4.5)"><rect width="6" height="6"/></g>
<g transform="translate(351,513) scale(4.5)"><rect width="6" height="6"/></g>
<g transform="translate(486,513) scale(4.5)"><rect width="6" height="6"/></g>
<g transform="translate(513,513) scale(4.5)"><rect width="6" height="6"/></g>
<g transform="translate(540,513) scale(4.5)"><rect width="6" height="6"/></g>
<g transform="translate(594,513) scale(4.5)"><rect width="6" height="6"/></g>
<g transform="translate(648,513) scale(4.5)"><rect width="6" height="6"/></g>
<g transform="translate(675,513) scale(4.5)"><rect width="6" height="6"/></g>
<g transform="translate(702,513) scale(4.5)"><rect width="6" height="6"/></g>
<g transform="translate(756,513) scale(4.5)"><rect width="6" height="6"/></g>
<g transform="translate(918,513) scale(4.5)"><rect width="6" height="6"/></g>
<g transform="translate(108,540) scale(4.5)"><rect width="6" height="6"/></g>
<g transform="translate(216,540) scale(4.5)"><rect width="6" height="6"/></g>
<g transform="translate(297,540) scale(4.5)"><rect width="6" height="6"/></g>
<g transform="translate(324,540) scale(4.5)"><rect width="6" height="6"/></g>
<g transform="translate(351,540) scale(4.5)"><rect width="6" height="6"/></g>
<g transform="translate(405,540) scale(4.5)"><rect width="6" height="6"/></g>
<g transform="translate(432,540) scale(4.5)"><rect width="6" height="6"/></g>
<g transform="translate(459,540) scale(4.5)"><rect width="6" height="6"/></g>
<g transform="translate(486,540) scale(4.5)"><rect width="6" height="6"/></g>
<g transform="translate(540,540) scale(4.5)"><rect width="6" height="6"/></g>
<g transform="translate(567,540) scale(4.5)"><rect width="6" height="6"/></g>
<g transform="translate(621,540) scale(4.5)"><rect width="6" height="6"/></g>
<g transform="translate(648,540) scale(4.5)"><rect width="6" height="6"/></g>
<g transform="translate(702,540) scale(4.5)"><rect width="6" height="6"/></g>
<g transform="translate(864,540) scale(4.5)"><rect width="6" height="6"/></g>
<g transform="translate(891,540) scale(4.5)"><rect width="6" height="6"/></g>
<g transform="translate(54,567) scale(4.5)"><rect width="6" height="6"/></g>
<g transform="translate(81,567) scale(4.5)"><rect width="6" height="6"/></g>
<g transform="translate(135,567) scale(4.5)"><rect width="6" height="6"/></g>
<g transform="translate(162,567) scale(4.5)"><rect width="6" height="6"/></g>
<g transform="translate(270,567) scale(4.5)"><rect width="6" height="6"/></g>
<g transform="translate(324,567) scale(4.5)"><rect width="6" height="6"/></g>
<g transform="translate(351,567) scale(4.5)"><rect width="6" height="6"/></g>
<g transform="translate(378,567) scale(4.5)"><rect width="6" height="6"/></g>
<g transform="translate(405,567) scale(4.5)"><rect width="6" height="6"/></g>
<g transform="translate(486,567) scale(4.5)"><rect width="6" height="6"/></g>
<g transform="translate(513,567) scale(4.5)"><rect width="6" height="6"/></g>
<g transform="translate(540,567) scale(4.5)"><rect width="6" height="6"/></g>
<g transform="translate(621,567) scale(4.5)"><rect width="6" height="6"/></g>
<g transform="translate(648,567) scale(4.5)"><rect width="6" height="6"/></g>
<g transform="translate(675,567) scale(4.5)"><rect width="6" height="6"/></g>
<g transform="translate(702,567) scale(4.5)"><rect width="6" height="6"/></g>
<g transform="translate(729,567) scale(4.5)"><rect width="6" height="6"/></g>
<g transform="translate(837,567) scale(4.5)"><rect width="6" height="6"/></g>
<g transform="translate(864,567) scale(4.5)"><rect width="6" height="6"/></g>
<g transform="translate(918,567) scale(4.5)"><rect width="6" height="6"/></g>
<g transform="translate(108,594) scale(4.5)"><rect width="6" height="6"/></g>
<g transform="translate(135,594) scale(4.5)"><rect width="6" height="6"/></g>
<g transform="translate(162,594) scale(4.5)"><rect width="6" height="6"/></g>
<g transform="translate(216,594) scale(4.5)"><rect width="6" height="6"/></g>
<g transform="translate(270,594) scale(4.5)"><rect width="6" height="6"/></g>
<g transform="translate(351,594) scale(4.5)"><rect width="6" height="6"/></g>
<g transform="translate(432,594) scale(4.5)"><rect width="6" height="6"/></g>
<g transform="translate(459,594) scale(4.5)"><rect width="6" height="6"/></g>
<g transform="translate(486,594) scale(4.5)"><rect width="6" height="6"/></g>
<g transform="translate(513,594) scale(4.5)"><rect width="6" height="6"/></g>
<g transform="translate(540,594) scale(4.5)"><rect width="6" height="6"/></g>
<g transform="translate(594,594) scale(4.5)"><rect width="6" height="6"/></g>
<g transform="translate(648,594) scale(4.5)"><rect width="6" height="6"/></g>
<g transform="translate(675,594) scale(4.5)"><rect width="6" height="6"/></g>
<g transform="translate(783,594) scale(4.5)"><rect width="6" height="6"/></g>
<g transform="translate(810,594) scale(4.5)"><rect width="6" height="6"/></g>
<g transform="translate(837,594) scale(4.5)"><rect width="6" height="6"/></g>
<g transform="translate(54,621) scale(4.5)"><rect width="6" height="6"/></g>
<g transform="translate(81,621) scale(4.5)"><rect width="6" height="6"/></g>
<g transform="translate(108,621) scale(4.5)"><rect width="6" height="6"/></g>
<g transform="translate(162,621) scale(4.5)"><rect width="6" height="6"/></g>
<g transform="translate(189,621) scale(4.5)"><rect width="6" height="6"/></g>
<g transform="translate(243,621) scale(4.5)"><rect width="6" height="6"/></g>
<g transform="translate(270,621) scale(4.5)"><rect width="6" height="6"/></g>
<g transform="translate(297,621) scale(4.5)"><rect width="6" height="6"/></g>
<g transform="translate(324,621) scale(4.5)"><rect width="6" height="6"/></g>
<g transform="translate(351,621) scale(4.5)"><rect width="6" height="6"/></g>
<g transform="translate(378,621) scale(4.5)"><rect width="6" height="6"/></g>
<g transform="translate(405,621) scale(4.5)"><rect width="6" height="6"/></g>
<g transform="translate(432,621) scale(4.5)"><rect width="6" height="6"/></g>
<g transform="translate(459,621) scale(4.5)"><rect width="6" height="6"/></g>
<g transform="translate(540,621) scale(4.5)"><rect width="6" height="6"/></g>
<g transform="translate(567,621) scale(4.5)"><rect width="6" height="6"/></g>
<g transform="translate(594,621) scale(4.5)"><rect width="6" height="6"/></g>
<g transform="translate(621,621) scale(4.5)"><rect width="6" height="6"/></g>
<g transform="translate(675,621) scale(4.5)"><rect width="6" height="6"/></g>
<g transform="translate(756,621) scale(4.5)"><rect width="6" height="6"/></g>
<g transform="translate(837,621) scale(4.5)"><rect width="6" height="6"/></g>
<g transform="translate(864,621) scale(4.5)"><rect width="6" height="6"/></g>
<g transform="translate(918,621) scale(4.5)"><rect width="6" height="6"/></g>
<g transform="translate(54,648) scale(4.5)"><rect width="6" height="6"/></g>
<g transform="translate(135,648) scale(4.5)"><rect width="6" height="6"/></g>
<g transform="translate(162,648) scale(4.5)"><rect width="6" height="6"/></g>
<g transform="translate(189,648) scale(4.5)"><rect width="6" height="6"/></g>
<g transform="translate(216,648) scale(4.5)"><rect width="6" height="6"/></g>
<g transform="translate(405,648) scale(4.5)"><rect width="6" height="6"/></g>
<g transform="translate(432,648) scale(4.5)"><rect width="6" height="6"/></g>
<g transform="translate(459,648) scale(4.5)"><rect width="6" height="6"/></g>
<g transform="translate(486,648) scale(4.5)"><rect width="6" height="6"/></g>
<g transform="translate(540,648) scale(4.5)"><rect width="6" height="6"/></g>
<g transform="translate(594,648) scale(4.5)"><rect width="6" height="6"/></g>
<g transform="translate(621,648) scale(4.5)"><rect width="6" height="6"/></g>
<g transform="translate(648,648) scale(4.5)"><rect width="6" height="6"/></g>
<g transform="translate(702,648) scale(4.5)"><rect width="6" height="6"/></g>
<g transform="translate(783,648) scale(4.5)"><rect width="6" height="6"/></g>
<g transform="translate(810,648) scale(4.5)"><rect width="6" height="6"/></g>
<g transform="translate(837,648) scale(4.5)"><rect width="6" height="6"/></g>
<g transform="translate(891,648) scale(4.5)"><rect width="6" height="6"/></g>
<g transform="translate(54,675) scale(4.5)"><rect width="6" height="6"/></g>
<g transform="translate(162,675) scale(4.5)"><rect width="6" height="6"/></g>
<g transform="translate(270,675) scale(4.5)"><rect width="6" height="6"/></g>
<g transform="translate(297,675) scale(4.5)"><rect width="6" height="6"/></g>
<g transform="translate(324,675) scale(4.5)"><rect width="6" height="6"/></g>
<g transform="translate(378,675) scale(4.5)"><rect width="6" height="6"/></g>
<g transform="translate(432,675) scale(4.5)"><rect width="6" height="6"/></g>
<g transform="translate(486,675) scale(4.5)"><rect width="6" height="6"/></g>
<g transform="translate(567,675) scale(4.5)"><rect width="6" height="6"/></g>
<g transform="translate(621,675) scale(4.5)"><rect width="6" height="6"/></g>
<g transform="translate(648,675) scale(4.5)"><rect width="6" height="6"/></g>
<g transform="translate(675,675) scale(4.5)"><rect width="6" height="6"/></g>
<g transform="translate(810,675) scale(4.5)"><rect width="6" height="6"/></g>
<g transform="translate(864,675) scale(4.5)"><rect width="6" height="6"/></g>
<g transform="translate(891,675) scale(4.5)"><rect width="6" height="6"/></g>
<g transform="translate(54,702) scale(4.5)"><rect width="6" height="6"/></g>
<g transform="translate(108,702) scale(4.5)"><rect width="6" height="6"/></g>
<g transform="translate(135,702) scale(4.5)"><rect width="6" height="6"/></g>
<g transform="translate(216,702) scale(4.5)"><rect width="6" height="6"/></g>
<g transform="translate(243,702) scale(4.5)"><rect width="6" height="6"/></g>
<g transform="translate(297,702) scale(4.5)"><rect width="6" height="6"/></g>
<g transform="translate(324,702) scale(4.5)"><rect width="6" height="6"/></g>
<g transform="translate(378,702) scale(4.5)"><rect width="6" height="6"/></g>
<g transform="translate(405,702) scale(4.5)"><rect width="6" height="6"/></g>
<g transform="translate(432,702) scale(4.5)"><rect width="6" height="6"/></g>
<g transform="translate(459,702) scale(4.5)"><rect width="6" height="6"/></g>
<g transform="translate(486,702) scale(4.5)"><rect width="6" height="6"/></g>
<g transform="translate(540,702) scale(4.5)"><rect width="6" height="6"/></g>
<g transform="translate(648,702) scale(4.5)"><rect width="6" height="6"/></g>
<g transform="translate(675,702) scale(4.5)"><rect width="6" height="6"/></g>
<g transform="translate(702,702) scale(4.5)"><rect width="6" height="6"/></g>
<g transform="translate(729,702) scale(4.5)"><rect width="6" height="6"/></g>
<g transform="translate(756,702) scale(4.5)"><rect width="6" height="6"/></g>
<g transform="translate(783,702) scale(4.5)"><rect width="6" height="6"/></g>
<g transform="translate(810,702) scale(4.5)"><rect width="6" height="6"/></g>
<g transform="translate(918,702) scale(4.5)"><rect width="6" height="6"/></g>
<g transform="translate(270,729) scale(4.5)"><rect width="6" height="6"/></g>
<g transform="translate(297,729) scale(4.5)"><rect width="6" height="6"/></g>
<g transform="translate(351,729) scale(4.5)"><rect width="6" height="6"/></g>
<g transform="translate(405,729) scale(4.5)"><rect width="6" height="6"/></g>
<g transform="translate(432,729) scale(4.5)"><rect width="6" height="6"/></g>
<g transform="translate(513,729) scale(4.5)"><rect width="6" height="6"/></g>
<g transform="translate(567,729) scale(4.5)"><rect width="6" height="6"/></g>
<g transform="translate(648,729) scale(4.5)"><rect width="6" height="6"/></g>
<g transform="translate(675,729) scale(4.5)"><rect width="6" height="6"/></g>
<g transform="translate(702,729) scale(4.5)"><rect width="6" height="6"/></g>
<g transform="translate(810,729) scale(4.5)"><rect width="6" height="6"/></g>
<g transform="translate(837,729) scale(4.5)"><rect width="6" height="6"/></g>
<g transform="translate(864,729) scale(4.5)"><rect width="6" height="6"/></g>
<g transform="translate(891,729) scale(4.5)"><rect width="6" height="6"/></g>
<g transform="translate(918,729) scale(4.5)"><rect width="6" height="6"/></g>
<g transform="translate(297,756) scale(4.5)"><rect width="6" height="6"/></g>
<g transform="translate(378,756) scale(4.5)"><rect width="6" height="6"/></g>
<g transform="translate(405,756) scale(4.5)"><rect width="6" height="6"/></g>
<g transform="translate(432,756) scale(4.5)"><rect width="6" height="6"/></g>
<g transform="translate(513,756) scale(4.5)"><rect width="6" height="6"/></g>
<g transform="translate(567,756) scale(4.5)"><rect width="6" height="6"/></g>
<g transform="translate(648,756) scale(4.5)"><rect width="6" height="6"/></g>
<g transform="translate(675,756) scale(4.5)"><rect width="6" height="6"/></g>
<g transform="translate(702,756) scale(4.5)"><rect width="6" height="6"/></g>
<g transform="translate(756,756) scale(4.5)"><rect width="6" height="6"/></g>
<g transform="translate(810,756) scale(4.5)"><rect width="6" height="6"/></g>
<g transform="translate(837,756) scale(4.5)"><rect width="6" height="6"/></g>
<g transform="translate(864,756) scale(4.5)"><rect width="6" height="6"/></g>
<g transform="translate(891,756) scale(4.5)"><rect width="6" height="6"/></g>
<g transform="translate(324,783) scale(4.5)"><rect width="6" height="6"/></g>
<g transform="translate(351,783) scale(4.5)"><rect width="6" height="6"/></g>
<g transform="translate(405,783) scale(4.5)"><rect width="6" height="6"/></g>
<g transform="translate(432,783) scale(4.5)"><rect width="6" height="6"/></g>
<g transform="translate(459,783) scale(4.5)"><rect width="6" height="6"/></g>
<g transform="translate(540,783) scale(4.5)"><rect width="6" height="6"/></g>
<g transform="translate(567,783) scale(4.5)"><rect width="6" height="6"/></g>
<g transform="translate(594,783) scale(4.5)"><rect width="6" height="6"/></g>
<g transform="translate(621,783) scale(4.5)"><rect width="6" height="6"/></g>
<g transform="translate(648,783) scale(4.5)"><rect width="6" height="6"/></g>
<g transform="translate(675,783) scale(4.5)"><rect width="6" height="6"/></g>
<g transform="translate(702,783) scale(4.5)"><rect width="6" height="6"/></g>
<g transform="translate(810,783) scale(4.5)"><rect width="6" height="6"/></g>
<g transform="translate(837,783) scale(4.5)"><rect width="6" height="6"/></g>
<g transform="translate(864,783) scale(4.5)"><rect width="6" height="6"/></g>
<g transform="translate(891,783) scale(4.5)"><rect width="6" height="6"/></g>
<g transform="translate(918,783) scale(4.5)"><rect width="6" height="6"/></g>
<g transform="translate(270,810) scale(4.5)"><rect width="6" height="6"/></g>
<g transform="translate(324,810) scale(4.5)"><rect width="6" height="6"/></g>
<g transform="translate(351,810) scale(4.5)"><rect width="6" height="6"/></g>
<g transform="translate(405,810) scale(4.5)"><rect width="6" height="6"/></g>
<g transform="translate(432,810) scale(4.5)"><rect width="6" height="6"/></g>
<g transform="translate(540,810) scale(4.5)"><rect width="6" height="6"/></g>
<g transform="translate(567,810) scale(4.5)"><rect width="6" height="6"/></g>
<g transform="translate(594,810) scale(4.5)"><rect width="6" height="6"/></g>
<g transform="translate(621,810) scale(4.5)"><rect width="6" height="6"/></g>
<g transform="translate(702,810) scale(4.5)"><rect width="6" height="6"/></g>
<g transform="translate(729,810) scale(4.5)"><rect width="6" height="6"/></g>
<g transform="translate(756,810) scale(4.5)"><rect width="6" height="6"/></g>
<g transform="translate(783,810) scale(4.5)"><rect width="6" height="6"/></g>
<g transform="translate(810,810) scale(4.5)"><rect width="6" height="6"/></g>
<g transform="translate(891,810) scale(4.5)"><rect width="6" height="6"/></g>
<g transform="translate(270,837) scale(4.5)"><rect width="6" height="6"/></g>
<g transform="translate(297,837) scale(4.5)"><rect width="6" height="6"/></g>
<g transform="translate(324,837) scale(4.5)"><rect width="6" height="6"/></g>
<g transform="translate(405,837) scale(4.5)"><rect width="6" height="6"/></g>
<g transform="translate(459,837) scale(4.5)"><rect width="6" height="6"/></g>
<g transform="translate(594,837) scale(4.5)"><rect width="6" height="6"/></g>
<g transform="translate(621,837) scale(4.5)"><rect width="6" height="6"/></g>
<g transform="translate(675,837) scale(4.5)"><rect width="6" height="6"/></g>
<g transform="translate(702,837) scale(4.5)"><rect width="6" height="6"/></g>
<g transform="translate(810,837) scale(4.5)"><rect width="6" height="6"/></g>
<g transform="translate(918,837) scale(4.5)"><rect width="6" height="6"/></g>
<g transform="translate(270,864) scale(4.5)"><rect width="6" height="6"/></g>
<g transform="translate(297,864) scale(4.5)"><rect width="6" height="6"/></g>
<g transform="translate(324,864) scale(4.5)"><rect width="6" height="6"/></g>
<g transform="translate(378,864) scale(4.5)"><rect width="6" height="6"/></g>
<g transform="translate(567,864) scale(4.5)"><rect width="6" height="6"/></g>
<g transform="translate(594,864) scale(4.5)"><rect width="6" height="6"/></g>
<g transform="translate(702,864) scale(4.5)"><rect width="6" height="6"/></g>
<g transform="translate(729,864) scale(4.5)"><rect width="6" height="6"/></g>
<g transform="translate(756,864) scale(4.5)"><rect width="6" height="6"/></g>
<g transform="translate(837,864) scale(4.5)"><rect width="6" height="6"/></g>
<g transform="translate(864,864) scale(4.5)"><rect width="6" height="6"/></g>
<g transform="translate(297,891) scale(4.5)"><rect width="6" height="6"/></g>
<g transform="translate(405,891) scale(4.5)"><rect width="6" height="6"/></g>
<g transform="translate(594,891) scale(4.5)"><rect width="6" height="6"/></g>
<g transform="translate(729,891) scale(4.5)"><rect width="6" height="6"/></g>
<g transform="translate(783,891) scale(4.5)"><rect width="6" height="6"/></g>
<g transform="translate(837,891) scale(4.5)"><rect width="6" height="6"/></g>
<g transform="translate(864,891) scale(4.5)"><rect width="6" height="6"/></g>
<g transform="translate(324,918) scale(4.5)"><rect width="6" height="6"/></g>
<g transform="translate(405,918) scale(4.5)"><rect width="6" height="6"/></g>
<g transform="translate(432,918) scale(4.5)"><rect width="6" height="6"/></g>
<g transform="translate(459,918) scale(4.5)"><rect width="6" height="6"/></g>
<g transform="translate(486,918) scale(4.5)"><rect width="6" height="6"/></g>
<g transform="translate(513,918) scale(4.5)"><rect width="6" height="6"/></g>
<g transform="translate(567,918) scale(4.5)"><rect width="6" height="6"/></g>
<g transform="translate(594,918) scale(4.5)"><rect width="6" height="6"/></g>
<g transform="translate(621,918) scale(4.5)"><rect width="6" height="6"/></g>
<g transform="translate(675,918) scale(4.5)"><rect width="6" height="6"/></g>
<g transform="translate(702,918) scale(4.5)"><rect width="6" height="6"/></g>
<g transform="translate(729,918) scale(4.5)"><rect width="6" height="6"/></g>
<g transform="translate(837,918) scale(4.5)"><rect width="6" height="6"/></g>
<g transform="translate(891,918) scale(4.5)"><rect width="6" height="6"/></g>
</g></mask></defs>
<rect width="999" height="999" fill="#ffffff" x="0" y="0" />
<rect x="0" y="0" width="999" height="999" mask="url(#qrmask)" fill="#000000" />
<g transform="translate(54,54)"  fill="#000000"><g transform="scale(13.5)"><path d="M0,0v14h14V0H0z M12,12H2V2h10V12z"/></g></g>
<g transform="translate(756,54)"  fill="#000000"><g transform="scale(13.5)"><path d="M0,0v14h14V0H0z M12,12H2V2h10V12z"/></g></g>
<g transform="translate(54,756)"  fill="#000000"><g transform="scale(13.5)"><path d="M0,0v14h14V0H0z M12,12H2V2h10V12z"/></g></g>
<g transform="translate(108,108)"  fill="#000000"><g transform="scale(13.5)"><rect width="6" height="6"/></g></g>
<g transform="translate(810,108)"  fill="#000000"><g transform="scale(13.5)"><rect width="6" height="6"/></g></g>
<g transform="translate(108,810)"  fill="#000000"><g transform="scale(13.5)"><rect width="6" height="6"/></g></g>
</svg>