<?xml version="1.0" encoding="UTF-8" standalone="no"?>
<svg
   width="16"
   height="16"
   fill="currentColor"
   class="bi bi-file-earmark-ruled"
   viewBox="0 0 16 16"
   version="1.1"
   id="svg19"
   sodipodi:docname="atualizar.svg"
   inkscape:version="1.1.1 (3bf5ae0d25, 2021-09-20)"
   xmlns:inkscape="http://www.inkscape.org/namespaces/inkscape"
   xmlns:sodipodi="http://sodipodi.sourceforge.net/DTD/sodipodi-0.dtd"
   xmlns="http://www.w3.org/2000/svg"
   xmlns:svg="http://www.w3.org/2000/svg">
  <defs
     id="defs23" />
  <sodipodi:namedview
     id="namedview21"
     pagecolor="#ffffff"
     bordercolor="#666666"
     borderopacity="1.0"
     inkscape:pageshadow="2"
     inkscape:pageopacity="0.0"
     inkscape:pagecheckerboard="0"
     showgrid="false"
     inkscape:zoom="61"
     inkscape:cx="7.9918033"
     inkscape:cy="7.8852459"
     inkscape:window-width="2240"
     inkscape:window-height="1276"
     inkscape:window-x="-12"
     inkscape:window-y="-12"
     inkscape:window-maximized="1"
     inkscape:current-layer="svg19" />
  <path
     d="M14 14V4.5L9.5 0H4a2 2 0 0 0-2 2v12a2 2 0 0 0 2 2h8a2 2 0 0 0 2-2zM9.5 3A1.5 1.5 0 0 0 11 4.5h2V9H3V2a1 1 0 0 1 1-1h5.5v2zM3 12v-2h2v2H3zm0 1h2v2H4a1 1 0 0 1-1-1v-1zm3 2v-2h7v1a1 1 0 0 1-1 1H6zm7-3H6v-2h7v2z"
     id="path17" />
  <path
     style="fill:#88aa00;stroke-width:0.0163934"
     d="M 3.8442623,15.983311 C 3.1619984,15.929072 2.5500455,15.522869 2.2393995,14.918033 2.1431144,14.730563 2.0878672,14.579962 2.0469568,14.393443 2.0174315,14.258831 2.0163934,14.041674 2.0163934,8 c 0,-6.0416741 0.00104,-6.2588313 0.030563,-6.3934426 C 2.1296954,1.2293354 2.3208704,0.8707497 2.5773945,0.61161897 2.9323109,0.25309615 3.3597127,0.05602912 3.8688525,0.01615175 3.9804177,0.00741362 5.2400272,5.8292459e-4 6.7787108,3.7197049e-4 L 9.491848,0 l 2.250191,2.2502357 2.250191,2.2502359 -0.005,4.8932068 c -0.0047,4.5497966 -0.007,4.9010586 -0.033,5.0050796 -0.129246,0.516382 -0.385043,0.912421 -0.777061,1.203084 -0.229614,0.170249 -0.477621,0.281086 -0.787919,0.352131 l -0.159736,0.03657 -4.1147539,0.0026 c -2.2631148,0.0014 -4.1848361,-0.003 -4.2704918,-0.0098 z M 5.0081967,14 V 13 H 4 2.9918033 l 2.846e-4,0.553279 c 3.218e-4,0.625629 0.00931,0.699792 0.1094745,0.903621 0.084435,0.171816 0.2622619,0.350583 0.4323636,0.434652 0.2096958,0.103637 0.2238963,0.105364 0.8800084,0.106982 L 5.0081967,15 Z m 7.2459013,0.975648 c 0.360061,-0.09569 0.654302,-0.400737 0.729665,-0.756453 0.01816,-0.08569 0.02393,-0.245009 0.02415,-0.665916 L 13.008197,13 H 9.5 5.9918033 v 1 1 l 3.0860656,-1.95e-4 c 2.6547821,-1.67e-4 3.0986661,-0.0035 3.1762291,-0.02416 z M 5.0081967,11 V 10 H 4 2.9918033 v 1 1 H 4 5.0081967 Z m 8.0000003,0 V 10 H 9.5 5.9918033 v 1 1 H 9.5 13.008197 Z m 0,-4.2533611 V 4.4932777 L 11.881148,4.487501 C 10.804863,4.4819844 10.74893,4.480219 10.639344,4.4483069 10.359487,4.3668098 10.130478,4.234103 9.9467477,4.046959 9.8088618,3.906511 9.7388754,3.8067864 9.6549326,3.6311475 9.5102556,3.3284305 9.5012685,3.2318056 9.5005521,1.9713115 L 9.5,1 H 6.670399 C 3.5242721,1 3.7549038,0.99180954 3.5245902,1.1117176 3.361458,1.196649 3.1817719,1.3798839 3.1015624,1.5431001 2.9848128,1.780671 2.9924033,1.5100106 2.9920879,5.4467213 L 2.9918033,9 H 8 13.008197 Z"
     id="path179" />
  <path
     style="fill:#008000;stroke-width:0.0163934"
     d="M 3.7213115,15.959747 C 3.5005278,15.925041 3.3366734,15.872474 3.1311475,15.770413 3.0229508,15.716684 2.8829855,15.633886 2.8201136,15.586416 2.4572871,15.312476 2.1986992,14.922569 2.0702231,14.455709 L 2.0327869,14.319672 V 8 c 0,-6.1075674 0.00102,-6.3235236 0.030472,-6.4344262 C 2.2698531,0.78756798 2.8356918,0.2311403 3.5901639,0.06406434 3.7511156,0.02842202 3.7839267,0.02754497 5.3934426,0.01586229 6.295082,0.00931773 7.582387,0.0030714 8.2541207,0.00198155 L 9.4754546,0 l 2.2522804,2.2523252 2.252281,2.2523251 -0.0038,4.6616094 c -0.0021,2.5638853 -0.0095,4.7943963 -0.01646,4.9566913 -0.01147,0.267033 -0.01746,0.309327 -0.06303,0.44495 -0.242662,0.722178 -0.759858,1.195829 -1.502136,1.375664 l -0.1651,0.04 -4.1885244,-0.0016 C 4.7636504,15.980665 3.82391,15.975865 3.7212935,15.959745 Z M 5.0081967,14 V 13 H 3.9987831 2.9893696 l 0.00579,0.618852 0.00579,0.618853 0.043546,0.109779 c 0.1042924,0.262921 0.3019582,0.471658 0.5508959,0.58175 0.051019,0.02256 0.1223553,0.04691 0.1585248,0.0541 0.03617,0.0072 0.3331807,0.01388 0.6600249,0.01487 L 5.0081967,15 Z m 7.2213113,0.983828 c 0.146357,-0.02378 0.319859,-0.116715 0.45476,-0.243587 0.132134,-0.12427 0.208481,-0.234742 0.271432,-0.392757 l 0.04373,-0.109779 0.0054,-0.618853 L 13.010325,13 H 9.5010643 5.9918033 v 1 1 l 3.0696721,-9.8e-5 c 1.9150546,-6.6e-5 3.1066696,-0.0061 3.1680326,-0.01608 z M 5.0081967,11 V 10 H 4 2.9918033 v 1 1 H 4 5.0081967 Z m 8.0000003,0 V 10 H 9.5 5.9918033 v 1 1 H 9.5 13.008197 Z m 0,-4.2540984 V 4.4918033 l -0.04508,-0.00158 c -0.0248,-8.672e-4 -0.543033,-0.00702 -1.15164,-0.013675 L 10.704918,4.4644531 10.560741,4.4136552 C 10.289017,4.317919 10.095411,4.1896361 9.8936433,3.9716382 9.8002015,3.8706798 9.7557136,3.803463 9.6791387,3.6475411 9.626002,3.5393444 9.57077,3.3991805 9.556401,3.3360657 9.5319643,3.2287292 9.5192818,2.7180852 9.5013339,1.1188526 L 9.5,1 6.7254098,1.0002912 C 5.1558139,1.000456 3.8886408,1.0071255 3.8076482,1.0156483 3.6058415,1.0368842 3.4718286,1.1084866 3.28617,1.2942715 3.0867296,1.4938475 3.0288908,1.6132551 3.0078535,1.8688525 2.9987476,1.9794877 2.9922266,3.491557 2.99207,5.5286885 L 2.9918033,9 H 8 13.008197 Z"
     id="path292" />
</svg>
