<?xml version="1.0" encoding="UTF-8" standalone="no"?>
<svg
   width="16"
   height="16"
   fill="currentColor"
   class="bi bi-check2-circle"
   viewBox="0 0 16 16"
   version="1.1"
   id="svg1182"
   sodipodi:docname="tarefas.svg"
   inkscape:version="1.1.1 (3bf5ae0d25, 2021-09-20)"
   xmlns:inkscape="http://www.inkscape.org/namespaces/inkscape"
   xmlns:sodipodi="http://sodipodi.sourceforge.net/DTD/sodipodi-0.dtd"
   xmlns="http://www.w3.org/2000/svg"
   xmlns:svg="http://www.w3.org/2000/svg">
  <defs
     id="defs1186" />
  <sodipodi:namedview
     id="namedview1184"
     pagecolor="#ffffff"
     bordercolor="#666666"
     borderopacity="1.0"
     inkscape:pageshadow="2"
     inkscape:pageopacity="0.0"
     inkscape:pagecheckerboard="0"
     showgrid="false"
     inkscape:zoom="44.9375"
     inkscape:cx="8"
     inkscape:cy="7.8331015"
     inkscape:window-width="2240"
     inkscape:window-height="1276"
     inkscape:window-x="-12"
     inkscape:window-y="-12"
     inkscape:window-maximized="1"
     inkscape:current-layer="svg1182" />
  <path
     d="M2.5 8a5.5 5.5 0 0 1 8.25-4.764.5.5 0 0 0 .5-.866A6.5 6.5 0 1 0 14.5 8a.5.5 0 0 0-1 0 5.5 5.5 0 1 1-11 0z"
     id="path1178" />
  <path
     d="M15.354 3.354a.5.5 0 0 0-.708-.708L8 9.293 5.354 6.646a.5.5 0 1 0-.708.708l3 3a.5.5 0 0 0 .708 0l7-7z"
     id="path1180" />
  <path
     style="fill:#ff6600;stroke-width:0.0222531"
     d="M 7.7997218,10.446038 C 7.6993075,10.40292 4.6608205,7.3726985 4.577185,7.232267 4.4525751,7.023036 4.5232367,6.7314401 4.7320324,6.5932658 c 0.1060896,-0.070207 0.300903,-0.093064 0.4338987,-0.050909 0.069097,0.021901 0.3534268,0.2942948 1.4600097,1.398716 L 8.0001431,9.3125906 11.365857,5.9477902 c 2.393916,-2.3932656 3.389603,-3.3746735 3.448449,-3.3989937 0.305314,-0.1261817 0.660371,0.1020734 0.667663,0.4292198 0.0053,0.2364678 0.226671,9.465e-4 -3.617886,3.8486312 -2.4359268,2.4379077 -3.5922971,3.5804895 -3.6541407,3.6105705 -0.1088372,0.05294 -0.2980064,0.057 -0.4102205,0.0088 z"
     id="path1243" />
  <path
     style="fill:#ff6600;stroke-width:0.0222531"
     d="M 7.4102921,14.461683 C 6.7204275,14.39593 6.0306715,14.215029 5.3852573,13.930581 4.2015838,13.408911 3.2011241,12.545877 2.5087904,11.449235 2.3318872,11.169024 2.0436206,10.588376 1.9257762,10.274884 1.530417,9.2231419 1.4160448,8.0305391 1.6041079,6.9207232 1.7819147,5.8714328 2.2285816,4.8581472 2.8883563,4.0073433 3.1250073,3.7021731 3.7218216,3.1055057 4.0055633,2.8904113 5.2773056,1.926349 6.667293,1.4723785 8.2002782,1.5204156 8.9554588,1.5440797 9.634639,1.678565 10.310153,1.9381944 c 0.31807,0.1222484 0.885032,0.4023376 0.989519,0.4888405 0.117495,0.097271 0.178864,0.2265737 0.178864,0.3768594 0,0.270396 -0.202628,0.4742044 -0.474364,0.4771263 -0.110458,0.00119 -0.160363,-0.017602 -0.511822,-0.19271 C 9.9319933,2.8091233 9.4098423,2.6416675 8.7965968,2.544476 8.4413548,2.488175 7.5586452,2.488175 7.2034032,2.544476 5.943595,2.7441393 4.9036228,3.2815466 4.0268255,4.1859779 c -1.530081,1.578304 -1.9631634,3.9574237 -1.090408,5.9901101 0.5475329,1.275228 1.5852039,2.318983 2.8605227,2.877296 0.4083985,0.17879 0.9212344,0.32537 1.406463,0.401998 0.3177144,0.05017 1.2148435,0.05679 1.5198235,0.01121 1.2297244,-0.183795 2.2392883,-0.673918 3.1003193,-1.505143 0.68991,-0.666026 1.168961,-1.445497 1.450869,-2.3607279 0.12866,-0.4176997 0.205379,-0.8840289 0.234059,-1.4226931 0.0165,-0.309946 0.04306,-0.4067462 0.139438,-0.5082966 0.141361,-0.1489415 0.38337,-0.194137 0.559207,-0.1044319 0.123078,0.06279 0.239417,0.2080908 0.265401,0.3314712 0.03809,0.1808459 -0.01819,0.896152 -0.106174,1.3494075 -0.198982,1.0251258 -0.655542,1.9953178 -1.345656,2.8595268 -0.177389,0.222139 -0.7125,0.753964 -0.948367,0.942545 -1.175346,0.939712 -2.6340743,1.448363 -4.1168293,1.435514 -0.1897079,-0.0016 -0.4350486,-0.01158 -0.5452016,-0.02208 z"
     id="path1282" />
</svg>
